<?xml version="1.0" standalone="no"?>
<!DOCTYPE svg PUBLIC "-//W3C//DTD SVG 20010904//EN"
 "http://www.w3.org/TR/2001/REC-SVG-20010904/DTD/svg10.dtd">
<svg version="1.0" xmlns="http://www.w3.org/2000/svg"
 width="1360.000000pt" height="592.000000pt" viewBox="0 0 1360.000000 592.000000"
 preserveAspectRatio="xMidYMid meet">

<g transform="translate(0.000000,592.000000) scale(0.100000,-0.100000)"
fill="#000000" stroke="none">
<path d="M2980 5824 c-295 -28 -596 -99 -865 -204 -672 -263 -1171 -680 -1564
-1305 -85 -135 -229 -432 -284 -585 -48 -132 -105 -341 -131 -475 -75 -385
-71 -850 10 -1255 21 -102 92 -313 147 -437 323 -715 991 -1150 1917 -1244
152 -16 490 -16 615 0 350 44 738 155 1034 297 74 35 135 63 136 62 32 -55
119 -164 185 -232 242 -251 504 -366 835 -366 136 0 211 10 375 46 362 81 606
207 640 332 15 57 -2 116 -45 159 -43 43 -76 43 -166 -3 -161 -81 -352 -122
-511 -110 -219 17 -413 111 -588 286 -73 72 -200 227 -200 244 0 2 28 31 62
63 177 167 310 319 437 498 718 1014 823 2388 250 3243 -345 514 -938 853
-1689 967 -102 16 -500 28 -600 19z m315 -554 c175 -32 285 -69 435 -146 296
-152 549 -420 729 -774 108 -212 181 -451 217 -716 24 -174 24 -546 0 -728
-50 -383 -173 -763 -339 -1051 -68 -118 -150 -236 -157 -228 -4 4 -56 100
-115 212 -222 422 -343 601 -526 776 -214 204 -459 306 -779 321 -105 5 -118
4 -148 -15 -68 -43 -108 -198 -64 -250 10 -12 50 -30 99 -44 105 -30 178 -74
276 -167 150 -142 269 -326 542 -840 86 -162 177 -332 201 -377 l45 -82 -41
-26 c-77 -49 -236 -123 -338 -159 -170 -59 -274 -77 -483 -83 -359 -11 -651
48 -934 186 -359 176 -609 462 -744 854 -86 250 -121 490 -121 832 1 408 56
768 170 1100 53 155 179 412 268 545 317 477 796 789 1327 865 113 16 382 14
480 -5z"/>
<path d="M13109 3784 c-7 -9 -47 -145 -89 -302 l-77 -287 30 -7 c17 -3 105 -9
197 -13 l166 -7 22 83 c12 46 22 91 22 100 0 30 -27 52 -71 58 -44 6 -44 7
-43 45 2 47 14 56 85 56 30 0 63 6 73 13 19 14 65 164 66 214 0 56 -22 63
-206 63 -135 0 -164 -3 -175 -16z"/>
<path d="M9752 3110 c-198 -52 -398 -206 -580 -445 -25 -33 -49 -64 -53 -69
-4 -5 -8 56 -7 135 1 213 -21 271 -127 324 -55 28 -68 30 -165 30 -120 -1
-187 -20 -277 -80 -58 -39 -320 -301 -342 -342 -22 -43 -9 -109 30 -150 76
-80 145 -77 202 8 19 26 64 76 101 110 73 67 93 70 107 18 19 -66 2 -410 -32
-644 -23 -162 -119 -720 -150 -875 -19 -97 -20 -108 -6 -142 24 -58 80 -81
197 -82 112 0 171 22 220 84 41 52 46 69 91 300 80 409 152 641 274 878 111
218 274 425 371 472 78 38 168 25 232 -34 80 -72 75 -130 -68 -786 -88 -401
-124 -616 -117 -693 11 -125 84 -203 212 -227 127 -24 256 3 375 78 81 50 337
315 351 362 16 51 -2 99 -52 144 -69 63 -136 45 -210 -57 -27 -37 -91 -92
-136 -116 -19 -10 -26 -8 -42 8 -15 15 -18 26 -11 53 155 652 231 1015 249
1194 25 243 -52 408 -231 497 -137 69 -265 84 -406 47z"/>
<path d="M7710 3111 c-80 -25 -148 -90 -173 -167 -9 -27 -28 -125 -42 -218
-42 -271 -93 -479 -162 -666 -111 -299 -334 -624 -477 -697 -96 -49 -227 -15
-273 69 -35 64 -24 157 70 588 171 789 178 831 143 915 -40 94 -113 136 -252
143 -76 4 -105 1 -165 -18 -253 -76 -519 -315 -519 -467 0 -37 6 -50 40 -87
42 -45 79 -60 115 -46 12 5 70 58 130 119 115 118 147 135 164 88 11 -30 14
-16 -125 -638 -114 -506 -118 -528 -118 -644 -1 -92 3 -132 17 -173 76 -218
245 -334 485 -333 254 1 449 123 711 444 35 42 64 77 65 77 0 0 1 -69 1 -152
0 -147 1 -155 27 -204 92 -174 323 -192 549 -41 65 43 274 255 322 327 35 51
15 139 -41 179 -65 46 -122 36 -172 -32 -17 -23 -62 -69 -101 -104 -59 -52
-75 -61 -90 -52 -28 14 -32 48 -25 187 18 326 73 761 153 1199 47 260 51 307
28 349 -26 49 -68 64 -172 63 -48 0 -99 -4 -113 -8z"/>
<path d="M11830 3113 c-314 -23 -525 -123 -738 -348 -179 -189 -305 -432 -364
-700 -29 -130 -36 -464 -14 -593 44 -251 167 -424 370 -522 122 -58 209 -73
380 -67 98 3 165 11 220 26 84 22 254 100 322 147 115 80 238 180 255 208 56
88 -34 246 -139 246 -43 0 -85 -22 -146 -77 -143 -128 -343 -178 -491 -122
-173 65 -275 286 -275 600 0 392 144 708 372 814 134 62 235 16 372 -168 70
-96 118 -129 185 -129 89 0 222 94 289 204 37 62 65 175 56 228 -14 78 -68
141 -157 179 -108 47 -363 85 -497 74z"/>
<path d="M12891 3003 c-157 -595 -350 -1345 -376 -1464 -54 -241 -56 -368 -8
-464 61 -122 197 -161 355 -102 134 49 225 118 391 297 86 93 97 108 97 141 0
47 -45 99 -85 99 -40 0 -62 -15 -167 -116 -89 -87 -100 -94 -137 -94 -51 0
-75 23 -67 64 28 156 162 693 355 1431 l57 220 -40 6 c-23 3 -114 9 -203 13
l-162 6 -10 -37z"/>
</g>
</svg>
