<?xml version="1.0" standalone="no"?>
<!DOCTYPE svg PUBLIC "-//W3C//DTD SVG 20010904//EN"
 "http://www.w3.org/TR/2001/REC-SVG-20010904/DTD/svg10.dtd">
<svg version="1.0" xmlns="http://www.w3.org/2000/svg"
 width="1596.000000pt" height="1595.000000pt" viewBox="0 0 1596.000000 1595.000000"
 preserveAspectRatio="xMidYMid meet">

<g transform="translate(0.000000,1595.000000) scale(0.100000,-0.100000)"
fill="#000000" stroke="none">
<path d="M7795 15943 c-585 -14 -1205 -97 -1770 -237 -913 -226 -1850 -661
-2660 -1234 -393 -279 -722 -560 -1085 -929 -362 -367 -626 -687 -915 -1112
-303 -445 -627 -1070 -834 -1613 -449 -1174 -610 -2456 -470 -3723 183 -1653
868 -3184 1988 -4440 727 -815 1690 -1516 2691 -1960 713 -316 1464 -526 2235
-625 324 -41 496 -52 895 -57 418 -5 622 4 1018 48 740 81 1508 284 2227 590
212 90 648 309 855 430 1678 977 2940 2517 3566 4354 223 653 357 1338 404
2065 22 333 13 881 -21 1235 -144 1536 -725 2974 -1693 4190 -190 239 -374
444 -611 680 -305 305 -545 513 -874 759 -494 369 -980 653 -1541 901 -865
383 -1782 606 -2725 664 -182 11 -516 18 -680 14z m726 -1037 c526 -45 990
-134 1499 -288 1025 -310 2021 -902 2804 -1668 565 -552 1009 -1154 1357
-1835 450 -881 689 -1756 750 -2740 14 -233 6 -788 -15 -1000 -63 -636 -189
-1203 -392 -1752 -542 -1472 -1556 -2719 -2891 -3555 -594 -372 -1234 -646
-1936 -828 -447 -116 -978 -198 -1377 -215 -80 -3 -182 -8 -227 -11 -53 -4
-83 -2 -83 4 0 6 76 142 168 304 93 161 436 759 762 1328 842 1469 1634 2844
2097 3640 l399 685 975 3 974 2 109 193 c61 105 223 388 362 628 139 239 347
602 463 805 l211 369 -2002 3 c-1102 2 -2323 0 -2714 -4 l-712 -6 -243 -422
c-133 -231 -390 -677 -570 -991 l-327 -570 1144 -3 c629 -1 1144 -4 1144 -6 0
-2 -302 -527 -671 -1167 -1107 -1919 -2492 -4327 -2554 -4439 -56 -102 -122
-197 -162 -233 -19 -17 -26 -16 -159 8 -1646 303 -3169 1234 -4212 2575 -787
1012 -1281 2216 -1421 3465 -34 296 -44 559 -38 955 6 368 10 439 48 740 160
1286 747 2593 1619 3610 734 855 1706 1546 2750 1955 240 93 339 129 345 123
5 -5 -1119 -1956 -3280 -5693 -581 -1007 -1066 -1845 -1077 -1862 l-20 -33
2710 0 2710 0 222 383 c518 891 920 1586 926 1601 6 15 -182 16 -2109 18
l-2115 3 670 1160 c1582 2742 2733 4724 2751 4736 11 8 237 29 412 40 190 11
722 2 926 -15z"/>
</g>
</svg>
