<?xml version="1.0" standalone="no"?>
<!DOCTYPE svg PUBLIC "-//W3C//DTD SVG 20010904//EN"
 "http://www.w3.org/TR/2001/REC-SVG-20010904/DTD/svg10.dtd">
<svg version="1.0" xmlns="http://www.w3.org/2000/svg"
 width="2410.000000pt" height="2410.000000pt" viewBox="0 0 2410.000000 2410.000000"
 preserveAspectRatio="xMidYMid meet">

<g transform="translate(0.000000,2410.000000) scale(0.100000,-0.100000)"
fill="#000000" stroke="none">
<path d="M11880 19833 c-1466 -42 -2827 -712 -3763 -1852 -600 -729 -980
-1617 -1101 -2571 -41 -321 -46 -831 -11 -1150 127 -1180 637 -2241 1472
-3061 321 -316 645 -562 1032 -783 245 -141 620 -316 675 -316 40 0 82 25 94
57 7 15 226 732 487 1593 364 1196 475 1573 470 1597 -3 18 -19 43 -36 57
l-31 26 -407 0 c-391 0 -409 -1 -433 -20 -14 -10 -30 -32 -36 -47 -8 -19 -531
-1761 -585 -1946 -4 -12 -160 102 -300 218 -725 602 -1223 1432 -1406 2341
-64 322 -86 571 -78 908 10 437 70 783 207 1196 207 626 558 1185 1032 1645
334 325 685 571 1100 769 769 369 1634 485 2488 335 1643 -288 2972 -1595
3299 -3244 142 -715 93 -1430 -145 -2127 -265 -776 -773 -1468 -1438 -1960
-66 -49 -120 -87 -122 -86 -1 2 -135 446 -298 988 -253 840 -300 988 -322
1008 l-25 22 -405 0 c-445 0 -449 -1 -474 -60 -7 -17 -10 -45 -7 -63 8 -45
944 -3127 958 -3154 14 -26 61 -47 103 -47 63 1 476 196 716 339 389 231 692
466 1010 785 404 404 699 815 950 1325 558 1135 671 2422 319 3644 -199 692
-556 1343 -1045 1908 -139 160 -427 441 -589 574 -954 782 -2135 1188 -3355
1152z"/>
<path d="M11923 18286 c-87 -28 -172 -103 -205 -181 -26 -59 -1028 -3408
-1028 -3434 0 -35 28 -79 60 -96 47 -25 111 -19 202 19 115 47 189 60 311 53
159 -9 265 -53 362 -151 103 -104 167 -257 199 -481 12 -78 21 -108 43 -139
40 -57 86 -81 153 -80 123 0 174 58 209 234 86 430 268 620 595 620 102 0 192
-19 285 -61 74 -34 147 -38 192 -12 28 17 59 67 59 96 0 29 -1020 3413 -1041
3455 -28 54 -97 118 -157 145 -59 26 -180 33 -239 13z"/>
<path d="M11588 13401 l-33 -29 -3 -1756 c-2 -1919 -6 -1808 55 -1839 47 -25
381 -39 613 -26 201 11 239 20 260 58 7 13 10 595 10 1791 l0 1772 -29 29 -29
29 -406 0 -406 0 -32 -29z"/>
<path d="M2796 7941 c-10 -15 -376 -2093 -376 -2132 0 -19 5 -40 12 -47 8 -8
62 -12 179 -12 142 0 169 2 180 16 9 11 49 242 104 603 50 322 95 588 100 590
6 2 132 -268 282 -600 149 -332 276 -612 282 -621 9 -14 25 -18 71 -18 51 0
62 3 74 23 7 12 134 293 281 625 234 527 285 633 285 593 0 -5 41 -272 91
-593 65 -415 95 -588 106 -600 14 -16 37 -18 184 -18 164 0 169 1 183 23 14
20 -1 113 -170 1077 -101 580 -189 1065 -194 1078 -8 19 -17 22 -69 22 -35 0
-63 -5 -69 -12 -6 -7 -163 -341 -350 -743 -187 -401 -344 -731 -349 -732 -4
-2 -164 331 -354 740 l-346 742 -66 3 c-36 2 -68 -1 -71 -7z"/>
<path d="M17934 7918 c-55 -106 -974 -2105 -974 -2119 0 -43 23 -49 190 -49
98 0 169 4 184 11 27 13 28 14 127 234 l68 150 467 0 468 0 78 -175 c46 -101
89 -184 104 -197 24 -22 33 -23 185 -23 91 0 169 4 180 10 11 6 19 21 19 36 0
22 -949 2112 -972 2142 -6 6 -32 12 -59 12 -45 0 -50 -3 -65 -32z m217 -1075
c72 -158 138 -303 145 -320 l14 -33 -314 0 -314 0 135 303 c74 166 143 322
154 347 l20 45 15 -27 c8 -15 73 -157 145 -315z"/>
<path d="M19631 7937 c-12 -16 -381 -2078 -381 -2134 0 -22 6 -36 19 -43 11
-6 88 -10 179 -10 139 0 161 2 174 18 11 12 42 188 104 600 82 537 96 615 107
602 2 -3 127 -279 277 -614 151 -334 280 -614 288 -622 17 -18 116 -19 130 -1
6 6 132 287 282 622 150 336 274 612 276 614 2 2 6 2 9 -1 3 -2 46 -270 96
-594 79 -514 93 -591 111 -606 17 -16 42 -18 183 -18 135 0 166 3 179 16 9 8
16 18 16 22 1 29 -375 2140 -383 2150 -6 7 -33 12 -69 12 -54 0 -60 -2 -74
-27 -9 -16 -165 -350 -348 -742 -183 -393 -337 -716 -342 -718 -5 -1 -165 331
-355 740 l-345 742 -61 3 c-43 2 -63 -1 -72 -11z"/>
<path d="M5016 7898 c-9 -12 -16 -27 -16 -34 0 -6 162 -248 360 -538 l360
-528 0 -502 c0 -438 2 -504 16 -524 15 -21 21 -22 184 -22 140 0 171 3 184 16
14 14 16 75 16 521 l0 506 362 521 c236 340 363 532 366 552 7 52 -6 55 -219
52 l-193 -3 -250 -362 c-138 -199 -255 -361 -261 -359 -5 1 -103 137 -217 302
-115 164 -229 327 -253 362 l-45 62 -189 0 c-185 0 -190 -1 -205 -22z"/>
<path d="M7212 7908 c-9 -9 -12 -260 -12 -1069 0 -967 1 -1059 16 -1074 15
-15 60 -16 478 -12 496 4 506 5 666 62 205 73 405 228 523 403 224 334 256
739 87 1088 -153 315 -438 534 -783 599 -104 20 -956 22 -975 3z m963 -392
c109 -38 176 -78 256 -153 155 -147 227 -331 216 -556 -6 -129 -24 -203 -73
-303 -86 -174 -250 -306 -442 -355 -64 -16 -111 -19 -309 -19 l-233 0 0 703
c0 387 3 707 8 711 4 4 117 6 252 4 237 -4 247 -5 325 -32z"/>
<path d="M9580 7901 c-7 -13 -10 -365 -10 -1069 0 -1003 1 -1050 18 -1065 17
-15 78 -17 674 -17 622 0 656 1 671 18 14 16 17 43 17 169 0 133 -2 152 -18
166 -17 15 -65 17 -490 17 l-472 0 0 275 0 275 398 0 c374 0 400 1 415 18 24
26 25 296 1 330 l-15 22 -400 0 -399 0 0 255 0 254 476 3 c458 3 476 4 490 22
17 24 20 296 4 327 -10 18 -29 19 -680 19 -651 0 -670 -1 -680 -19z"/>
<path d="M11202 7908 c-7 -7 -12 -22 -12 -34 0 -26 966 -2135 983 -2146 19
-12 94 -9 104 5 5 6 229 489 498 1072 418 908 486 1063 478 1085 l-8 25 -196
3 c-149 2 -199 -1 -206 -10 -6 -7 -137 -299 -293 -648 -307 -689 -316 -710
-329 -710 -4 0 -144 305 -311 678 -166 372 -307 680 -314 684 -20 13 -381 9
-394 -4z"/>
<path d="M13481 7906 c-8 -9 -11 -64 -9 -172 3 -158 3 -158 28 -171 18 -9 91
-13 263 -13 l237 0 0 -883 c0 -844 1 -885 18 -900 27 -24 342 -25 366 -1 14
14 16 109 16 899 l0 884 256 3 c240 3 257 4 270 22 21 30 20 308 -2 330 -14
14 -93 16 -723 16 -591 0 -710 -2 -720 -14z"/>
<path d="M15356 7898 c-14 -20 -16 -138 -16 -1065 0 -1030 0 -1043 20 -1063
20 -20 33 -20 671 -20 429 0 657 4 670 10 18 10 19 23 19 168 0 86 -5 164 -10
172 -8 13 -77 16 -487 20 l-478 5 0 270 0 270 403 5 c343 4 404 7 412 20 5 8
10 83 10 166 0 133 -2 153 -18 167 -16 15 -63 17 -413 19 l-394 3 -3 253 -2
252 462 0 c353 0 469 3 488 13 25 13 25 13 28 171 2 108 -1 163 -9 172 -10 12
-122 14 -675 14 l-663 0 -15 -22z"/>
</g>
</svg>
